# xmcd
#
# Track frame offsets: 
#        150
#        19199
#        31607
#        56368
#        84952
#        100820
#        118300
#        129898
#        150561
#
# Disc length: 2217 seconds
#
# Revision: 0
# Processed by: cddbd v1.5.2PL0 Copyright (c) Steve Scherf et al.
# Submitted via: ExactAudioCopy v0.99pb5
#
DISCID=5e08a709
DTITLE=Ró¿ni wykonawcy - Lublin blues session 
DYEAR=2011
DGENRE=Blues
TTITLE0=01.Adam Blues Band - 2/3
TTITLE1=02.Lukasz Jemiola - Pan Zbyszek
TTITLE2=03.Zbyszek Kowalczyk - Lublin Blues
TTITLE3=04.Adam Blues Band - Czestochowa
TTITLE4=05.Deluxe - To twoje zycie
TTITLE5=06.Achemia Blues Rock Jam Band - Dziki bez
TTITLE6=07.The River - Stary stary
TTITLE7=08.Zbyszek Kowalczyk - Spektakl wodnika
TTITLE8=09.Adam Bartos - Z gitara w reku
EXTD=
EXTT0=
EXTT1=
EXTT2=
EXTT3=
EXTT4=
EXTT5=
EXTT6=
EXTT7=
EXTT8=
PLAYORDER=
